<?xml version="1.0" encoding="utf-8"?>
<!-- Generator: Adobe Illustrator 22.0.0, SVG Export Plug-In . SVG Version: 6.00 Build 0)  -->
<svg version="1.1" id="Layer_1" xmlns="http://www.w3.org/2000/svg" xmlns:xlink="http://www.w3.org/1999/xlink" x="0px" y="0px"
	 viewBox="0 0 300 300" style="enable-background:new 0 0 300 300;" xml:space="preserve">
<style type="text/css">
	.st0{fill:#2FC0F2;}
	.st1{fill:#28AACE;}
	.st2{fill:#1C89A3;}
	.st3{fill:#F7B541;}
	.st4{fill:#FFFFFF;}
</style>
<ellipse transform="matrix(2.528953e-02 -0.9997 0.9997 2.528953e-02 -3.7414 295.0387)" class="st0" cx="149.4" cy="149.4" rx="121.2" ry="121.2"/>
<path class="st1" d="M149.5,234.3l26.7,33.2c0,0,76.6-14,92.9-98.3l-58.3-75.2L149.5,234.3z"/>
<g>
	<g>
		<path class="st2" d="M189.9,87.2h-39.8h0h-39.8c0,0-6.1,10.7-14.4,11.6C66.3,201.1,150,226.4,150.1,226.4h0
			c0.1,0,83.8-25.3,54.2-127.6C195.9,97.8,189.9,87.2,189.9,87.2z"/>
		<path class="st3" d="M185.7,93.6h-36.2h0h-36.2c0,0-5.5,9.7-13.1,10.5c-26.9,92.4,49.3,115.3,49.3,115.3h0
			c0,0,76.2-22.8,49.3-115.3C191.2,103.3,185.7,93.6,185.7,93.6z"/>
		<path class="st4" d="M211.5,96.4l-0.7-2.4l-2.8-0.3c-5.4-0.6-10.7-7.7-12.1-10.2l-1.2-2h-90.2l-1.2,2c-1.4,2.4-6.7,9.5-12.1,10.1
			l-2.9,0.3l-0.7,2.4c-32.6,110,59.9,137.4,60.8,137.6l1.2,0.3l1.2-0.3C151.7,233.7,243.8,205.6,211.5,96.4z M149.5,226.4
			c-11.1-3.8-81.1-31.7-54.4-126c7-2.1,12.1-8.2,14.4-11.5h80.1c2.3,3.3,7.4,9.4,14.4,11.5C230.6,194.7,160.6,222.6,149.5,226.4z"/>
	</g>
	<path class="st4" d="M169.8,136.9H167c0-12.3-7.4-19.5-17.6-19.5c-10.2,0-17.6,7.1-17.6,19.5H129c-4.1,0-5.5,1.5-5.5,5.6v25.9
		c0,4.1,1.4,8,5.5,8h40.8c4.1,0,6.6-3.9,6.6-8v-25.9C176.4,138.4,173.8,136.9,169.8,136.9z M154,168.5h-9.3l1.8-12.9
		c-1.8-1-3.1-3.2-3.1-5.4c0-3.3,2.7-6.1,6-6.1c3.3,0,6,2.6,6,5.9c0,2.3-1.3,4.7-3.2,5.7L154,168.5z M137.3,136.9
		c0-11.4,6-13.9,12-13.9c6,0,12,2.5,12,13.9H137.3z"/>
</g>
</svg>
